<?xml version="1.0" encoding="UTF-8" standalone="no"?>
<svg
   version="1.1"
   width="470.78531pt"
   height="58.15543pt"
   viewBox="0 0 470.7853 58.15543"
   id="svg7"
   sodipodi:docname="ecolibriumLogoCropped.svg"
   inkscape:version="1.3.2 (091e20e, 2023-11-25, custom)"
   xmlns:inkscape="http://www.inkscape.org/namespaces/inkscape"
   xmlns:sodipodi="http://sodipodi.sourceforge.net/DTD/sodipodi-0.dtd"
   xmlns="http://www.w3.org/2000/svg"
   xmlns:svg="http://www.w3.org/2000/svg">
  <sodipodi:namedview
     id="namedview7"
     pagecolor="#ffffff"
     bordercolor="#000000"
     borderopacity="0.25"
     inkscape:showpageshadow="2"
     inkscape:pageopacity="0.0"
     inkscape:pagecheckerboard="0"
     inkscape:deskcolor="#d1d1d1"
     inkscape:document-units="pt"
     inkscape:zoom="0.79752921"
     inkscape:cx="514.71469"
     inkscape:cy="329.14155"
     inkscape:window-width="1600"
     inkscape:window-height="829"
     inkscape:window-x="3832"
     inkscape:window-y="71"
     inkscape:window-maximized="1"
     inkscape:current-layer="svg7" />
  <defs
     id="defs1">
    <clipPath
       id="clip_1">
      <path
         transform="matrix(1,0,0,-1,0,595.276)"
         d="m 179.467,280.528 h 470.786 v 58.15603 H 179.467 Z"
         id="path1" />
    </clipPath>
  </defs>
  <g
     id="layer_1"
     data-name="Layer 1"
     transform="translate(-179.4677,-256.59197)"
     style="fill:#000000">
    <g
       clip-path="url(#clip_1)"
       id="g3"
       style="display:inline;fill:#000000">
      <path
         transform="matrix(1,0,0,-1,203.1547,279.5334)"
         d="M 0,0 C 4.856,0 8.314,-2.43 9.747,-6.853 H -9.642 C -8.056,-2.494 -4.469,0 0,0 M 6.63,-21.001 C 4.609,-22.695 2.507,-23.504 0,-23.504 c -4.77,0 -8.488,2.666 -9.539,6.543 h 28.937 c 0.286,-1.397 0.69,-2.748 1.218,-4.04 z m 44.524,2.981 c -1.839,-2.976 -4.992,-4.917 -8.572,-4.917 -5.658,0 -10.348,4.845 -10.348,10.983 0,6.22 4.69,10.984 10.348,10.984 3.613,0 6.742,-1.889 8.568,-4.837 h 11.045 c -0.504,-1.955 -0.766,-4.01 -0.766,-6.147 0,-2.108 0.254,-4.136 0.745,-6.066 z m 33.962,-4.917 c -5.658,0 -10.349,4.845 -10.349,10.983 0,6.22 4.691,10.984 10.349,10.984 5.74,0 10.267,-4.764 10.267,-10.984 0,-6.138 -4.608,-10.983 -10.267,-10.983 m 20.93,22.088 c -1.066,1.986 -2.441,3.81 -4.114,5.452 -4.447,4.362 -10.348,6.784 -16.816,6.784 -6.468,0 -12.449,-2.422 -16.897,-6.784 C 66.387,2.804 64.917,0.769 63.815,-1.451 62.714,0.769 61.238,2.798 59.398,4.603 54.952,8.964 49.05,11.387 42.582,11.387 36.115,11.387 30.133,8.964 25.686,4.603 23.851,2.802 22.38,0.764 21.278,-1.458 20.848,-0.599 20.361,0.237 19.807,1.05 15.441,7.511 8.165,11.387 0,11.387 c -6.467,0 -12.449,-2.422 -16.896,-6.784 -4.446,-4.362 -6.791,-10.096 -6.791,-16.557 0,-6.46 2.263,-12.115 6.791,-16.557 4.608,-4.603 10.105,-6.703 16.896,-6.703 9.269,0 17.083,4.642 21.248,12.824 1.105,-2.246 2.586,-4.304 4.438,-6.121 4.447,-4.361 10.429,-6.703 16.896,-6.703 6.468,0 12.37,2.342 16.816,6.703 1.837,1.802 3.31,3.841 4.411,6.066 1.102,-2.225 2.574,-4.264 4.41,-6.066 4.448,-4.36 10.429,-6.703 16.897,-6.703 6.468,0 12.369,2.343 16.816,6.703 4.446,4.361 6.791,10.097 6.791,16.557 0,3.816 -0.803,7.326 -2.351,10.457 z"
         fill="#030f1f"
         id="path2"
         style="fill:#000000" />
      <path
         transform="matrix(1,0,0,-1,0,595.276)"
         d="m 320.032,281.378 h 9.903 v 57.288 h -9.903 z m 38.708,16.859 v -16.859 h 36.91 c 12.849,0 22.097,9.166 22.097,21.361 v 1.473 c 0,12.194 -9.248,21.36 -22.097,21.36 h -8.675 c -7.693,0 -13.749,-2.864 -18.332,-8.266 h 26.189 c 7.856,0 13.094,-5.156 13.094,-13.012 v -1.637 c 0,-7.857 -5.238,-13.013 -13.094,-13.013 h -26.189 v 27.662 c -7.12,-5.074 -9.903,-10.639 -9.903,-19.069 m 0,19.069 h 9.903 v 21.36003 h -9.903 z m 75.702,-0.409 c -7.121,-4.992 -9.903,-11.621 -9.903,-20.133 v -15.386 h 9.903 z m 0,0 h 35.354 v 8.675 h -16.859 c -7.774,0 -13.912,-3.192 -18.495,-8.675 m 70.299,-13.913 v 22.588 h -9.821 v -23.324 c 0,-12.358 8.43,-20.87 20.788,-20.87 h 7.202 c 7.774,0 13.83,3.192 18.414,8.675 h -23.57 c -7.693,0 -13.013,5.238 -13.013,12.931 m 46.485,7.202 v 15.386 h -9.902 v -35.519 c 7.12,4.993 9.902,11.622 9.902,20.133 m 89.206,-6.22 v -22.588 h 9.821 v 23.325 c 0,12.358 -8.43,20.869 -20.788,20.869 h -7.856 c -8.512,0 -14.158,-4.419 -17.187,-8.675 h 23.079 c 7.775,0 12.931,-5.238 12.931,-12.931 m -82.658,-7.202 v -15.386 h 9.902 v 35.519 c -7.12,-4.992 -9.902,-11.621 -9.902,-20.133 m 41.738,4.747 v -20.133 h 9.739 v 20.133 c 0,7.775 -2.128,11.376 -4.829,15.386 -2.782,-4.01 -4.91,-7.529 -4.91,-15.386 m -31.836,15.386 h 36.746 c -3.028,4.256 -8.184,8.675 -16.122,8.675 h -2.455 c -7.448,0 -13.586,-3.192 -18.169,-8.675"
         fill="#231f20"
         id="path3"
         style="fill:#000000" />
    </g>
    <path
       transform="matrix(1,0,0,-1,0,595.276)"
       d="m 339.427,329.613 h 9.90303 v 9.07103 H 339.427 Z"
       fill="#231f20"
       id="path4"
       style="display:inline;fill:#000000" />
    <path
       transform="matrix(1,0,0,-1,0,595.276)"
       d="m 475.771,329.613 h 9.903 v 9.07103 h -9.903 z"
       fill="#231f20"
       id="path5"
       style="fill:#000000" />
    <path
       transform="matrix(1,0,0,-1,0,595.276)"
       d="m 339.427,281.378 h 9.90303 v 44.194 H 339.427 Z"
       fill="#231f20"
       id="path6"
       style="fill:#000000" />
    <path
       transform="matrix(1,0,0,-1,0,595.276)"
       d="m 475.771,281.378 h 9.903 v 44.194 h -9.903 z"
       fill="#231f20"
       id="path7"
       style="fill:#000000" />
  </g>
</svg>
